<svg width="896" height="748" fill="none" xmlns="http://www.w3.org/2000/svg">
    <g clip-path="url(#a)">
        <path
            d="M41.634 712.738c12.428 23.049 38.806 32.943 38.806 32.943s6.227-27.475-6.201-50.524c-12.429-23.049-38.806-32.943-38.806-32.943s-6.227 27.475 6.201 50.524Z"
            fill="#2F2E41" />
        <path
            d="M50.176 705.155c22.439 13.5 31.08 40.314 31.08 40.314s-27.737 4.927-50.176-8.573C8.642 723.396 0 696.582 0 696.582s27.738-4.927 50.176 8.573Z"
            fill="#65C100" />
        <path d="M553.249 35.908h-140v2h140v-2Z" fill="#F2F2F2" />
        <path d="M515.249 37.408h-2v18.5h2v-18.5ZM454.249 37.408h-2v18.5h2v-18.5ZM624.249 131.908h-140v2h140v-2Z"
            fill="#F2F2F2" />
        <path d="M524.249 113.908h-2v18.5h2v-18.5ZM585.249 113.908h-2v18.5h2v-18.5ZM810.249 176.908h-140v2h140v-2Z"
            fill="#F2F2F2" />
        <path d="M710.249 158.908h-2v18.5h2v-18.5ZM771.249 158.908h-2v18.5h2v-18.5ZM796.249 640.908h-140v2h140v-2Z"
            fill="#F2F2F2" />
        <path d="M696.249 622.908h-2v18.5h2v-18.5ZM757.249 622.908h-2v18.5h2v-18.5ZM557.249 319.908h-140v2h140v-2Z"
            fill="#F2F2F2" />
        <path d="M457.249 301.908h-2v18.5h2v-18.5ZM518.249 301.908h-2v18.5h2v-18.5ZM601.249 560.908h-140v2h140v-2Z"
            fill="#F2F2F2" />
        <path d="M501.249 542.908h-2v18.5h2v-18.5ZM562.249 542.908h-2v18.5h2v-18.5ZM825.249 487.908h-140v2h140v-2Z"
            fill="#F2F2F2" />
        <path d="M725.249 469.908h-2v18.5h2v-18.5ZM786.249 469.908h-2v18.5h2v-18.5Z" fill="#F2F2F2" />
        <path
            d="M362.06 702.184H125.274v-1.703h235.082v-82.62H145.18l-10.453-21.777 1.536-.737 9.989 20.81H362.06v86.027Z"
            fill="#2F2E41" />
        <path
            d="M156.789 743.92c9.878 0 17.886-8.008 17.886-17.887 0-9.879-8.008-17.887-17.886-17.887-9.879 0-17.887 8.008-17.887 17.887 0 9.879 8.008 17.887 17.887 17.887ZM333.101 743.92c9.878 0 17.886-8.008 17.886-17.887 0-9.879-8.008-17.887-17.886-17.887-9.879 0-17.887 8.008-17.887 17.887 0 9.879 8.008 17.887 17.887 17.887ZM540.927 357.226c6.116 0 11.073-4.958 11.073-11.073s-4.957-11.073-11.073-11.073c-6.115 0-11.073 4.958-11.073 11.073s4.958 11.073 11.073 11.073Z"
            fill="#3F3D56" />
        <path
            d="M387.385 589.753H121.237L63.648 401.517h383.045l-.349 1.107-58.959 187.129Zm-264.888-1.703h263.639l58.234-184.83H65.95l56.547 184.83Z"
            fill="#2F2E41" />
        <path d="M366.61 579.958H132.842L82.26 413.015h336.441l-.306.983-51.785 165.96Z" fill="#F2F2F2" />
        <path
            d="m451.465 384.7-1.647-.437 11.241-42.369h65.389v1.704H462.37L451.465 384.7ZM427.551 458.584H82.258v1.703h345.293v-1.703ZM407.778 521.344H101.459v1.703h306.319v-1.703Z"
            fill="#2F2E41" />
        <path
            d="M256.017 402.368h-1.703v186.533h1.703V402.368ZM332.286 402.315l-12.228 186.528 1.7.112 12.228-186.529-1.7-.111ZM178.081 402.313l-1.701.111 12.158 186.533 1.7-.111-12.157-186.533ZM896 745H0v2h896v-2Z"
            fill="#2F2E41" />
        <path
            d="M595.411 61.876s14.618 41.606 5.622 48.007c-8.996 6.401 30.361 58.676 30.361 58.676l47.229-12.802-25.863-43.74s-3.374-43.74-3.374-50.141c0-6.401-53.975 0-53.975 0Z"
            fill="#A0616A" />
        <path opacity=".1"
            d="M595.411 61.876s14.618 41.606 5.622 48.007c-8.996 6.401 30.361 58.676 30.361 58.676l47.229-12.802-25.863-43.74s-3.374-43.74-3.374-50.141c0-6.401-53.975 0-53.975 0Z"
            fill="#000" />
        <path
            d="M570.874 358.454s-4.268 53.341 0 81.079c4.267 27.737 10.668 104.549 10.668 104.549s0 145.089 23.47 147.222c23.47 2.134 40.54 4.268 42.673-4.267 2.134-8.535-10.668-12.802-4.267-17.069 6.401-4.268 8.535-19.203 0-36.272-8.535-17.07 0-189.896 0-189.896l40.539 108.817s4.268 89.613 8.535 102.415c4.267 12.802-4.267 36.272 10.668 38.406 14.936 2.134 32.005-10.668 40.54-14.936 8.534-4.267-12.802-4.267-8.535-6.401 4.267-2.133 17.069-8.534 12.802-10.668-4.267-2.134-8.535-104.549-8.535-104.549s-11.735-218.7-26.67-227.234c-14.936-8.535-24.537 6.166-24.537 6.166l-117.351 22.638Z"
            fill="#2F2E41" />
        <path
            d="M609.279 682.77v17.069s-19.202 46.399 0 46.399c19.203 0 34.139 4.809 34.139-1.592v-57.609l-34.139-4.267ZM735.165 682.739v17.07s19.203 46.399 0 46.399-34.138 4.808-34.138-1.593v-57.608l34.138-4.268Z"
            fill="#2F2E41" />
        <path
            d="M625.282 92.814c21.211 0 38.406-17.195 38.406-38.406 0-21.21-17.195-38.406-38.406-38.406s-38.406 17.195-38.406 38.406 17.195 38.406 38.406 38.406Z"
            fill="#A0616A" />
        <path
            d="M613.547 125.886s10.668 32.004 27.737 25.603l17.069-6.401 29.872 204.831s-23.471 34.139-57.609 12.802c-34.139-21.336-17.069-236.835-17.069-236.835Z"
            fill="#65C100" />
        <path
            d="m643.418 119.485 9.601-20.27s56.542 26.671 65.077 35.205c8.535 8.535 8.534 21.337 8.534 21.337l-14.935 53.341s4.267 117.351 4.267 121.619c0 4.267 14.936 27.737 4.268 19.202-10.669-8.534-12.802-17.069-21.337-4.267s-27.737 27.738-27.737 27.738l-27.738-253.905Z"
            fill="#3F3D56" />
        <path
            d="m718.096 273.108-6.401 59.742s-38.406 34.139-29.871 36.272c8.534 2.134 12.802-6.401 12.802-6.401s14.935 14.936 23.47 6.401c8.534-8.534 29.871-89.613 29.871-89.613l-29.871-6.401Z"
            fill="#A0616A" />
        <path
            d="M626.1.13c-8.514-.304-17.626-.455-24.804 4.133a36.301 36.301 0 0 0-8.572 8.392c-6.992 8.838-13.033 19.959-10.436 30.925l3.016-1.176c0 2.927-.65 5.817-1.905 8.462.425-1.235 1.847.762 1.467 2.011l-3.323 10.9c5.462-2.002 12.257 2.053 13.088 7.81.38-12.66 1.693-27.18 11.964-34.593 5.18-3.739 11.735-4.88 18.042-5.893 5.818-.935 11.918-1.827 17.491.088 5.572 1.916 10.318 7.615 9.055 13.371 2.569-.885 5.443.906 6.713 3.309 1.27 2.403 1.337 5.237 1.375 7.955 2.739 1.936 5.856-1.908 6.973-5.071 2.62-7.425 4.949-15.328 3.538-23.073-1.412-7.746-7.724-15.148-15.597-15.174a5.464 5.464 0 0 0 1.422-3.849l-6.489-.548a7.17 7.17 0 0 0 4.285-2.26C650.798 8.716 630.313.28 626.1.13Z"
            fill="#2F2E41" />
        <path
            d="M624.215 113.084s-17.369-17.021-23.62-15.978c-6.251 1.042-14.786 15.978-14.786 15.978s-51.207 17.069-49.074 34.138c2.134 17.069 25.604 100.282 25.604 100.282s19.203 100.282 2.134 110.95c-17.069 10.668 81.079 38.406 83.212 25.604 2.134-12.802 6.401-140.821 0-160.024-6.401-19.203-23.47-110.95-23.47-110.95ZM698.893 147.222h26.383s18.424 81.079 20.557 89.614c2.134 8.534 6.401 49.074 4.268 49.074-2.134 0-44.807-8.535-44.807-2.134l-6.401-136.554Z"
            fill="#3F3D56" />
        <path d="M698 348H597c-9.856-45.34-10.68-89.146 0-131h101c-16.299 41.101-17.318 84.607 0 131Z" fill="#F2F2F2" />
        <path
            d="m555.938 292.311 29.871 12.802s57.609 8.534 57.609-14.936-57.609-10.668-57.609-10.668l-19.204-6.14-10.667 18.942Z"
            fill="#A0616A" />
        <path
            d="m562.339 134.42-25.604 6.401-19.203 113.084s-6.401 29.871 4.268 32.005c10.668 2.133 40.539 19.203 40.539 19.203s4.267-32.005 12.802-32.005l-21.337-17.069 12.802-74.678-4.267-46.941Z"
            fill="#3F3D56" />
        <path d="M200.249 352.908h-140v2h140v-2Z" fill="#F2F2F2" />
        <path d="M100.249 334.908h-2v18.5h2v-18.5ZM161.249 334.908h-2v18.5h2v-18.5ZM249.249 56.908h-140v2h140v-2Z"
            fill="#F2F2F2" />
        <path d="M211.249 58.408h-2v18.5h2v-18.5ZM150.249 58.408h-2v18.5h2v-18.5ZM390.249 253.908h-140v2h140v-2Z"
            fill="#F2F2F2" />
        <path d="M352.249 255.408h-2v18.5h2v-18.5ZM291.249 255.408h-2v18.5h2v-18.5ZM152.249 252.908h-140v2h140v-2Z"
            fill="#F2F2F2" />
        <path d="M114.249 254.408h-2v18.5h2v-18.5ZM53.248 254.408h-2v18.5h2v-18.5ZM320.249 152.908h-140v2h140v-2Z"
            fill="#F2F2F2" />
        <path d="M220.249 134.908h-2v18.5h2v-18.5ZM281.249 134.908h-2v18.5h2v-18.5Z" fill="#F2F2F2" />
    </g>
    <defs>
        <clipPath id="a">
            <path fill="#fff" d="M0 0h896v747.971H0z" />
        </clipPath>
    </defs>
</svg>
<svg xmlns="http://www.w3.org/2000/svg" data-name="Layer 1" width="896" height="747.97143" viewBox="0 0 896 747.97143"
    xmlns:xlink="http://www.w3.org/1999/xlink">
    <title>empty_cart</title>
    <path
        d="M193.634,788.75225c12.42842,23.049,38.806,32.9435,38.806,32.9435s6.22712-27.47543-6.2013-50.52448-38.806-32.9435-38.806-32.9435S181.20559,765.7032,193.634,788.75225Z"
        transform="translate(-152 -76.01429)" fill="#2f2e41" />
    <path
        d="M202.17653,781.16927c22.43841,13.49969,31.08016,40.3138,31.08016,40.3138s-27.73812,4.92679-50.17653-8.57291S152,772.59636,152,772.59636,179.73811,767.66958,202.17653,781.16927Z"
        transform="translate(-152 -76.01429)" fill="#6c63ff" />
    <rect x="413.2485" y="35.90779" width="140" height="2" fill="#f2f2f2" />
    <rect x="513.2485" y="37.40779" width="2" height="18.5" fill="#f2f2f2" />
    <rect x="452.2485" y="37.40779" width="2" height="18.5" fill="#f2f2f2" />
    <rect x="484.2485" y="131.90779" width="140" height="2" fill="#f2f2f2" />
    <rect x="522.2485" y="113.90779" width="2" height="18.5" fill="#f2f2f2" />
    <rect x="583.2485" y="113.90779" width="2" height="18.5" fill="#f2f2f2" />
    <rect x="670.2485" y="176.90779" width="140" height="2" fill="#f2f2f2" />
    <rect x="708.2485" y="158.90779" width="2" height="18.5" fill="#f2f2f2" />
    <rect x="769.2485" y="158.90779" width="2" height="18.5" fill="#f2f2f2" />
    <rect x="656.2485" y="640.90779" width="140" height="2" fill="#f2f2f2" />
    <rect x="694.2485" y="622.90779" width="2" height="18.5" fill="#f2f2f2" />
    <rect x="755.2485" y="622.90779" width="2" height="18.5" fill="#f2f2f2" />
    <rect x="417.2485" y="319.90779" width="140" height="2" fill="#f2f2f2" />
    <rect x="455.2485" y="301.90779" width="2" height="18.5" fill="#f2f2f2" />
    <rect x="516.2485" y="301.90779" width="2" height="18.5" fill="#f2f2f2" />
    <rect x="461.2485" y="560.90779" width="140" height="2" fill="#f2f2f2" />
    <rect x="499.2485" y="542.90779" width="2" height="18.5" fill="#f2f2f2" />
    <rect x="560.2485" y="542.90779" width="2" height="18.5" fill="#f2f2f2" />
    <rect x="685.2485" y="487.90779" width="140" height="2" fill="#f2f2f2" />
    <rect x="723.2485" y="469.90779" width="2" height="18.5" fill="#f2f2f2" />
    <rect x="784.2485" y="469.90779" width="2" height="18.5" fill="#f2f2f2" />
    <polygon
        points="362.06 702.184 125.274 702.184 125.274 700.481 360.356 700.481 360.356 617.861 145.18 617.861 134.727 596.084 136.263 595.347 146.252 616.157 362.06 616.157 362.06 702.184"
        fill="#2f2e41" />
    <circle cx="156.78851" cy="726.03301" r="17.88673" fill="#3f3d56" />
    <circle cx="333.10053" cy="726.03301" r="17.88673" fill="#3f3d56" />
    <circle cx="540.92726" cy="346.153" r="11.07274" fill="#3f3d56" />
    <path
        d="M539.38538,665.76747H273.23673L215.64844,477.531H598.69256l-.34852,1.10753Zm-264.8885-1.7035H538.136l58.23417-184.82951H217.95082Z"
        transform="translate(-152 -76.01429)" fill="#2f2e41" />
    <polygon points="366.61 579.958 132.842 579.958 82.26 413.015 418.701 413.015 418.395 413.998 366.61 579.958"
        fill="#f2f2f2" />
    <polygon
        points="451.465 384.7 449.818 384.263 461.059 341.894 526.448 341.894 526.448 343.598 462.37 343.598 451.465 384.7"
        fill="#2f2e41" />
    <rect x="82.2584" y="458.58385" width="345.2931" height="1.7035" fill="#2f2e41" />
    <rect x="101.45894" y="521.34377" width="306.31852" height="1.7035" fill="#2f2e41" />
    <rect x="254.31376" y="402.36843" width="1.7035" height="186.53301" fill="#2f2e41" />
    <rect x="385.55745" y="570.79732" width="186.92877" height="1.70379"
        transform="translate(-274.73922 936.23495) rotate(-86.24919)" fill="#2f2e41" />
    <rect x="334.45728" y="478.18483" width="1.70379" height="186.92877"
        transform="translate(-188.46866 -52.99638) rotate(-3.729)" fill="#2f2e41" />
    <rect y="745" width="896" height="2" fill="#2f2e41" />
    <path
        d="M747.41068,137.89028s14.61842,41.60627,5.62246,48.00724S783.39448,244.573,783.39448,244.573l47.22874-12.80193-25.86336-43.73993s-3.37348-43.73992-3.37348-50.14089S747.41068,137.89028,747.41068,137.89028Z"
        transform="translate(-152 -76.01429)" fill="#a0616a" />
    <path
        d="M747.41068,137.89028s14.61842,41.60627,5.62246,48.00724S783.39448,244.573,783.39448,244.573l47.22874-12.80193-25.86336-43.73993s-3.37348-43.73992-3.37348-50.14089S747.41068,137.89028,747.41068,137.89028Z"
        transform="translate(-152 -76.01429)" opacity="0.1" />
    <path
        d="M722.87364,434.46832s-4.26731,53.34138,0,81.07889,10.66828,104.5491,10.66828,104.5491,0,145.08854,23.4702,147.22219,40.53945,4.26731,42.6731-4.26731-10.66827-12.80193-4.26731-17.06924,8.53462-19.20289,0-36.27213,0-189.8953,0-189.8953l40.53945,108.81641s4.26731,89.61351,8.53462,102.41544-4.26731,36.27213,10.66827,38.40579,32.00483-10.66828,40.53945-14.93559-12.80193-4.26731-8.53462-6.401,17.06924-8.53462,12.80193-10.66828-8.53462-104.54909-8.53462-104.54909S879.69728,414.1986,864.7617,405.664s-24.537,6.16576-24.537,6.16576Z"
        transform="translate(-152 -76.01429)" fill="#2f2e41" />
    <path d="M761.27943,758.78388v17.06924s-19.20289,46.39942,0,46.39942,34.13848,4.8083,34.13848-1.59266V763.05119Z"
        transform="translate(-152 -76.01429)" fill="#2f2e41" />
    <path d="M887.16508,758.75358v17.06924s19.20289,46.39941,0,46.39941-34.13848,4.80831-34.13848-1.59266V763.02089Z"
        transform="translate(-152 -76.01429)" fill="#2f2e41" />
    <circle cx="625.28185" cy="54.4082" r="38.40579" fill="#a0616a" />
    <path
        d="M765.54674,201.89993s10.66828,32.00482,27.73752,25.60386l17.06924-6.401L840.22467,425.9337s-23.47021,34.13848-57.60869,12.80193S765.54674,201.89993,765.54674,201.89993Z"
        transform="translate(-152 -76.01429)" fill="#6c63ff" />
    <path
        d="M795.41791,195.499l9.60145-20.26972s56.54186,26.67069,65.07648,35.20531,8.53462,21.33655,8.53462,21.33655l-14.93559,53.34137s4.26731,117.351,4.26731,121.61834,14.93559,27.73751,4.26731,19.20289-12.80193-17.06924-21.33655-4.26731-27.73751,27.73752-27.73751,27.73752Z"
        transform="translate(-152 -76.01429)" fill="#3f3d56" />
    <path
        d="M870.09584,349.12212l-6.401,59.74234s-38.40579,34.13848-29.87117,36.27214,12.80193-6.401,12.80193-6.401,14.93559,14.93559,23.47021,6.401S899.967,355.52309,899.967,355.52309Z"
        transform="translate(-152 -76.01429)" fill="#a0616a" />
    <path
        d="M778.1,76.14416c-8.51412-.30437-17.62549-.45493-24.80406,4.13321a36.31263,36.31263,0,0,0-8.5723,8.39153c-6.99153,8.83846-13.03253,19.95926-10.43553,30.92537l3.01633-1.1764a19.75086,19.75086,0,0,1-1.90515,8.46261c.42475-1.2351,1.84722.76151,1.4664,2.01085L733.543,139.792c5.46207-2.00239,12.25661,2.05189,13.08819,7.80969.37974-12.66123,1.6932-27.17965,11.964-34.59331,5.17951-3.73868,11.73465-4.88,18.04162-5.8935,5.81832-.935,11.91781-1.82659,17.49077.08886s10.31871,7.615,9.0553,13.37093c2.56964-.88518,5.44356.90566,6.71347,3.30856s1.33662,5.2375,1.37484,7.95506c2.73911,1.93583,5.85632-1.9082,6.97263-5.07112,2.62033-7.42434,4.94941-15.32739,3.53783-23.073s-7.72325-15.14773-15.59638-15.174a5.46676,5.46676,0,0,0,1.42176-3.84874l-6.48928-.5483a7.1723,7.1723,0,0,0,4.28575-2.25954C802.7981,84.73052,782.31323,76.29477,778.1,76.14416Z"
        transform="translate(-152 -76.01429)" fill="#2f2e41" />
    <path
        d="M776.215,189.098s-17.36929-17.02085-23.62023-15.97822S737.80923,189.098,737.80923,189.098s-51.20772,17.06924-49.07407,34.13848S714.339,323.51826,714.339,323.51826s19.2029,100.28179,2.13366,110.95006,81.07889,38.40579,83.21254,25.60386,6.401-140.82123,0-160.02412S776.215,189.098,776.215,189.098Z"
        transform="translate(-152 -76.01429)" fill="#3f3d56" />
    <path
        d="M850.89294,223.23648h26.38265S895.6997,304.31537,897.83335,312.85s6.401,49.07406,4.26731,49.07406-44.80675-8.53462-44.80675-2.13365Z"
        transform="translate(-152 -76.01429)" fill="#3f3d56" />
    <path
        d="M850,424.01429H749c-9.85608-45.34-10.67957-89.14649,0-131H850C833.70081,334.115,832.68225,377.62137,850,424.01429Z"
        transform="translate(-152 -76.01429)" fill="#f2f2f2" />
    <path
        d="M707.93806,368.325,737.80923,381.127s57.60868,8.53462,57.60868-14.93559-57.60868-10.66827-57.60868-10.66827L718.60505,349.383Z"
        transform="translate(-152 -76.01429)" fill="#a0616a" />
    <path
        d="M714.339,210.43455l-25.60386,6.401L669.53227,329.91923s-6.401,29.87117,4.26731,32.00482S714.339,381.127,714.339,381.127s4.26731-32.00483,12.80193-32.00483L705.8044,332.05288,718.60633,257.375Z"
        transform="translate(-152 -76.01429)" fill="#3f3d56" />
    <rect x="60.2485" y="352.90779" width="140" height="2" fill="#f2f2f2" />
    <rect x="98.2485" y="334.90779" width="2" height="18.5" fill="#f2f2f2" />
    <rect x="159.2485" y="334.90779" width="2" height="18.5" fill="#f2f2f2" />
    <rect x="109.2485" y="56.90779" width="140" height="2" fill="#f2f2f2" />
    <rect x="209.2485" y="58.40779" width="2" height="18.5" fill="#f2f2f2" />
    <rect x="148.2485" y="58.40779" width="2" height="18.5" fill="#f2f2f2" />
    <rect x="250.2485" y="253.90779" width="140" height="2" fill="#f2f2f2" />
    <rect x="350.2485" y="255.40779" width="2" height="18.5" fill="#f2f2f2" />
    <rect x="289.2485" y="255.40779" width="2" height="18.5" fill="#f2f2f2" />
    <rect x="12.2485" y="252.90779" width="140" height="2" fill="#f2f2f2" />
    <rect x="112.2485" y="254.40779" width="2" height="18.5" fill="#f2f2f2" />
    <rect x="51.2485" y="254.40779" width="2" height="18.5" fill="#f2f2f2" />
    <rect x="180.2485" y="152.90779" width="140" height="2" fill="#f2f2f2" />
    <rect x="218.2485" y="134.90779" width="2" height="18.5" fill="#f2f2f2" />
    <rect x="279.2485" y="134.90779" width="2" height="18.5" fill="#f2f2f2" />
</svg>
